<svg xmlns="http://www.w3.org/2000/svg" viewBox="0 0 860.9 141.9">
    <path d="M318.5,0.7h-14.1c-3.2,0-5.7,2.6-5.7,5.7v129.1c0,3.2,2.6,5.7,5.7,5.7h14.1c3.2,0,5.7-2.6,5.7-5.7V6.4
	C324.3,3.2,321.7,0.7,318.5,0.7"/>
    <path d="M424.9,30.6c5.5-3.4,11.3-5.1,17.8-5.1c6.9,0,13.4,2.3,19.7,7.1l4.2,3.2c2.2,1.6,5.3,1.5,7.3-0.4l10.6-9.7
	c1.2-1.1,1.9-2.8,1.9-4.5c-0.1-1.7-0.9-3.3-2.3-4.3l-6.1-4.6C467.3,4.1,455.4,0,442.7,0c-8.4,0-16.5,1.8-24.2,5.2
	c-7.5,3.4-14.1,8.1-19.6,13.9c-5.5,5.8-9.8,12.7-13,20.6c-3.2,7.9-4.8,18.4-4.8,31.3c0,13.2,1.5,23.1,4.8,31.3
	c3.2,7.9,7.5,14.8,13,20.6c5.5,5.8,12.1,10.5,19.6,13.9c7.7,3.5,15.8,5.2,24.2,5.2c13.2,0,25.3-4.1,36-12.2l5-3.8
	c2.5-1.9,3-5.5,1.1-8l-8.4-11.3c-0.9-1.2-2.3-2-3.8-2.2c-1.5-0.2-3,0.2-4.3,1.1l-5.1,3.9c-6.1,4.7-12.9,6.9-20.6,6.9
	c-6.5,0-12.3-1.7-17.8-5.1c-5.7-3.5-10-8.1-13.3-14.2c-3.2-5.8-5-15.3-5-26.2c0-11.4,1.7-20.2,5-26.2
	C414.9,38.7,419.2,34.1,424.9,30.6"/>
    <path d="M86.6,0.7H5.8C2.6,0.7,0,3.2,0,6.4l0,129.1c0,1.5,0.6,3,1.7,4.1c1.1,1.1,2.5,1.7,4.1,1.7h14.1
	c3.2,0,5.7-2.6,5.7-5.7V79.4h36.5c3.2,0,5.7-2.6,5.7-5.7V59.6c0-3.2-2.6-5.7-5.7-5.7H25.5V26.2h53.6l7.6-0.1
	c3.1-0.1,5.6-2.6,5.6-5.7V6.4C92.4,3.2,89.8,0.7,86.6,0.7"/>
    <path d="M230.7,59.7c2-4.8,3.1-11.7,3.1-16.9c0-5.2-1-12.3-3.1-17.1c-2-4.7-4.9-9-8.6-12.7c-3.9-3.9-8.8-7-14.7-9.2
	c-5.6-2.1-11.8-3.1-18.5-3.1H146c-1.6,0-3.1,0.7-4.2,1.8c-1.1,1.2-1.6,2.7-1.5,4.3l0.4,6.4l0.1,122.4c0,3.2,2.6,5.7,5.7,5.7h14.1
	c3.2,0,5.7-2.6,5.7-5.7V84.7h15.6l24.8,53.1c0.9,2.1,3,3.4,5.3,3.4h15.9c1.9,0,3.7-1,4.8-2.6c1.1-1.6,1.2-3.7,0.4-5.4l-24.9-52.1
	c5.5-2.2,10.2-5.1,13.8-8.8C225.7,68.7,228.6,64.4,230.7,59.7 M208.2,42.8c0,1.8-0.3,5.2-1,6.9c-0.8,1.8-1.8,3.3-3.3,4.8
	c-1.2,1.3-3.1,2.4-5.5,3.3c-2.7,1-5.9,1.5-9.5,1.5h-22.5v-33h22.5c3.6,0,6.8,0.5,9.5,1.5c2.4,0.9,4.3,2,5.5,3.3
	c1.5,1.5,2.5,3,3.3,4.8C207.8,37.4,208.2,41,208.2,42.8"/>
    <path d="M626.2,0.7h-14.1c-3.2,0-5.7,2.6-5.7,5.7v52.5h-44.1V6.4c0-3.2-2.6-5.7-5.7-5.7h-14.1c-3.2,0-5.7,2.6-5.7,5.7
	v129.1c0,3.2,2.6,5.7,5.7,5.7h14.1c3.2,0,5.7-2.6,5.7-5.7V84.4h44.1v51.1c0,3.2,2.6,5.7,5.7,5.7h14.1c3.2,0,5.7-2.6,5.7-5.7V6.4
	C631.9,3.2,629.4,0.7,626.2,0.7"/>
    <path d="M776,0.7h-90.5c-3.2,0-5.7,2.6-5.7,5.7v13.9c0,3.2,2.6,5.7,5.7,5.7l32.5,0.1v109.4c0,3.2,2.6,5.7,5.7,5.7h14.1
	c3.2,0,5.7-2.6,5.7-5.7V26.2h25l7.6-0.1c3.1-0.1,5.6-2.6,5.6-5.7V6.4C781.8,3.2,779.2,0.7,776,0.7"/>
    <path d="M855.2,0.7h-14.1c-3.2,0-5.7,2.6-5.7,5.7v129.1c0,3.2,2.6,5.7,5.7,5.7h14.1c3.2,0,5.7-2.6,5.7-5.7V6.4
	C860.9,3.2,858.3,0.7,855.2,0.7"/>
</svg>
