<svg xmlns="http://www.w3.org/2000/svg" viewBox="0 0 270.9 244.6">
    <path d="M270.5,226.4l-10.4-26.6c-2.3-7.6-10-13.7-17.2-13.7h-81.1v-9.5l76.5,0.1c4.9,0,9.5-2.2,12.6-6
	c3.1-3.8,4.3-8.8,3.3-13.6c-12.2-57.9-56-99.5-108.3-104.3v-8.7h9c7.8,0,14.1-6.3,14.1-14.1V14.1c0-7.8-6.3-14.1-14.1-14.1h-38.5
	c-7.8,0-14.1,6.3-14.1,14.1V30c0,7.8,6.3,14.1,14.1,14.1h8.9v8.7C73,57.7,29.3,99.2,17,157c-1,4.8,0.2,9.8,3.3,13.6
	c3.1,3.8,7.7,6,12.6,6l76.4,0.1v9.5h-81c-11.4,0-15.4,9.4-17.1,13.4L0.8,225.7c-1.5,3.8-0.9,8.1,1.5,11.6c3,4.4,8.7,7.3,14.1,7.3
	h238.1c5.2,0,10.3-2.6,13.5-6.7C270.7,234.5,271.6,230.3,270.5,226.4 M117.6,15.4h36v13.4h-36V15.4z M32.3,160.9
	c-0.2-0.2-0.2-0.4-0.2-0.7c11.5-54.4,54.1-92.4,103.4-92.4c49.4,0,92,38.1,103.5,92.5c0.1,0.3,0,0.5-0.2,0.7
	c-0.2,0.3-0.5,0.3-0.6,0.3l-205.3-0.2C32.8,161.2,32.5,161.2,32.3,160.9 M129.8,176.6l11.4,0v9.5h-11.4V176.6z M254.6,229.2H16.5
	c-0.1,0-0.3,0-0.5-0.1l9.4-24c1.5-3.6,2-3.6,2.8-3.6l214.4,0c0.8,0.2,2.5,1.8,2.8,2.9l9.7,24.7C254.9,229.2,254.7,229.2,254.6,229.2
	"/>
</svg>
